<svg width="40" height="40" viewBox="0 0 40 40" fill="none" xmlns="http://www.w3.org/2000/svg">
<path d="M30.8833 32.0667H8.99994C8.73799 32.069 8.4821 31.9879 8.26935 31.8351C8.05659 31.6823 7.89802 31.4657 7.81661 31.2167L2.49994 15C2.41849 14.7668 2.40994 14.5144 2.47543 14.2762C2.54093 14.038 2.67737 13.8254 2.86661 13.6667C3.05351 13.5027 3.28562 13.399 3.53248 13.3693C3.77935 13.3395 4.02943 13.3851 4.24994 13.5L13.9499 18.3333L18.9499 8.63334C19.0652 8.43996 19.2287 8.27983 19.4245 8.16863C19.6202 8.05743 19.8415 7.99896 20.0666 7.99896C20.2917 7.99896 20.513 8.05743 20.7087 8.16863C20.9045 8.27983 21.068 8.43996 21.1833 8.63334L26.1833 18.35L35.8999 13.5167C36.1179 13.4032 36.3652 13.3583 36.6091 13.3881C36.8531 13.4178 37.0823 13.5208 37.2666 13.6833C37.4262 13.8582 37.5328 14.0748 37.5741 14.3078C37.6154 14.5409 37.5897 14.781 37.4999 15L32.0666 31.2C31.9881 31.4521 31.8308 31.6724 31.6178 31.8284C31.4048 31.9844 31.1473 32.0679 30.8833 32.0667ZM9.99994 29.5667H29.9999L34.1833 17.0833L26.0666 21.1167C25.9213 21.191 25.7626 21.2358 25.5998 21.2484C25.437 21.2609 25.2734 21.2411 25.1184 21.1899C24.9633 21.1387 24.82 21.0573 24.6967 20.9503C24.5733 20.8433 24.4725 20.7129 24.3999 20.5667L19.9999 11.9333L15.6166 20.5667C15.5441 20.7129 15.4432 20.8433 15.3199 20.9503C15.1966 21.0573 15.0532 21.1387 14.8982 21.1899C14.7432 21.2411 14.5795 21.2609 14.4167 21.2484C14.2539 21.2358 14.0953 21.191 13.9499 21.1167L5.79994 17.0333L9.99994 29.5667Z" fill="black"/>
<path d="M19.9999 24.5333C19.6698 24.529 19.3543 24.3959 19.1208 24.1625C18.8873 23.929 18.7542 23.6135 18.7499 23.2833C18.7477 23.12 18.778 22.9578 18.839 22.8062C18.9 22.6547 18.9905 22.5167 19.1052 22.4004C19.22 22.2842 19.3567 22.1918 19.5074 22.1288C19.6581 22.0658 19.8199 22.0333 19.9833 22.0333C20.3148 22.0333 20.6327 22.165 20.8671 22.3995C21.1016 22.6339 21.2333 22.9518 21.2333 23.2833C21.2333 23.6149 21.1016 23.9328 20.8671 24.1672C20.6327 24.4016 20.3148 24.5333 19.9833 24.5333H19.9999Z" fill="black"/>
</svg>
