<svg width="40" height="40" viewBox="0 0 40 40" fill="none" xmlns="http://www.w3.org/2000/svg">
<path d="M27.9833 36.5H11.3166C10.4909 36.5066 9.67198 36.3499 8.90699 36.039C8.14199 35.7281 7.44599 35.269 6.85899 34.6882C6.27199 34.1074 5.80557 33.4163 5.48653 32.6547C5.1675 31.893 5.00214 31.0758 4.99997 30.25V13.5834C4.99116 12.757 5.14631 11.9371 5.45646 11.1711C5.7666 10.4051 6.22557 9.70823 6.80682 9.12078C7.38806 8.53334 8.08004 8.06699 8.8427 7.74874C9.60537 7.43049 10.4236 7.26665 11.25 7.26669H27.9166C29.5742 7.26669 31.164 7.92517 32.3361 9.09728C33.5082 10.2694 34.1666 11.8591 34.1666 13.5167V30.1834C34.18 31.8397 33.5371 33.4339 32.3784 34.6176C31.2197 35.8013 29.6395 36.4781 27.9833 36.5ZM11.3166 9.83336C10.8242 9.82453 10.3348 9.9128 9.87641 10.0931C9.41806 10.2735 8.99972 10.5423 8.64529 10.8844C8.29087 11.2264 8.0073 11.635 7.81078 12.0866C7.61426 12.5383 7.50865 13.0242 7.49997 13.5167V30.1834C7.49112 30.6814 7.58157 31.1762 7.76606 31.6389C7.95055 32.1016 8.22537 32.5229 8.57447 32.8782C8.92358 33.2335 9.33997 33.5157 9.79934 33.7083C10.2587 33.9009 10.7519 34.0001 11.25 34H27.9166C28.4091 34 28.8967 33.903 29.3517 33.7146C29.8067 33.5261 30.2201 33.2499 30.5683 32.9017C30.9165 32.5535 31.1927 32.1401 31.3812 31.6851C31.5696 31.2301 31.6666 30.7425 31.6666 30.25V13.5834C31.6666 13.0909 31.5696 12.6033 31.3812 12.1483C31.1927 11.6933 30.9165 11.2799 30.5683 10.9317C30.2201 10.5835 29.8067 10.3073 29.3517 10.1188C28.8967 9.93036 28.4091 9.83336 27.9166 9.83336H11.3166Z" fill="#2D2D2D"/>
<path d="M32.9833 23.5167H6.31659C5.98507 23.5167 5.66713 23.385 5.43271 23.1506C5.19829 22.9162 5.06659 22.5982 5.06659 22.2667C5.06659 21.9352 5.19829 21.6172 5.43271 21.3828C5.66713 21.1484 5.98507 21.0167 6.31659 21.0167H32.9833C33.3148 21.0167 33.6327 21.1484 33.8671 21.3828C34.1016 21.6172 34.2333 21.9352 34.2333 22.2667C34.2333 22.5982 34.1016 22.9162 33.8671 23.1506C33.6327 23.385 33.3148 23.5167 32.9833 23.5167Z" fill="#2D2D2D"/>
<path d="M19.6166 9.76667C19.2852 9.76638 18.9675 9.63449 18.7333 9.40001L14.3499 5.00001C14.145 4.77083 14.0316 4.47415 14.0316 4.16667C14.0316 3.8592 14.145 3.56252 14.3499 3.33334C14.4648 3.21541 14.6022 3.12169 14.7539 3.05769C14.9056 2.99369 15.0686 2.96072 15.2333 2.96072C15.3979 2.96072 15.5609 2.99369 15.7126 3.05769C15.8643 3.12169 16.0017 3.21541 16.1166 3.33334L19.6166 6.66667L23.2166 3.08334C23.3315 2.96541 23.4689 2.87169 23.6206 2.80769C23.7723 2.74369 23.9353 2.71072 24.0999 2.71072C24.2646 2.71072 24.4276 2.74369 24.5793 2.80769C24.731 2.87169 24.8684 2.96541 24.9833 3.08334C25.1244 3.19944 25.2383 3.34507 25.3171 3.50998C25.3958 3.67488 25.4375 3.85505 25.4391 4.03778C25.4407 4.22052 25.4022 4.40138 25.3263 4.56763C25.2504 4.73388 25.139 4.88147 24.9999 5.00001L20.4999 9.40001C20.2657 9.63449 19.948 9.76638 19.6166 9.76667Z" fill="#2D2D2D"/>
<path d="M19.6167 36.5C19.2865 36.4957 18.9711 36.3626 18.7376 36.1291C18.5041 35.8956 18.371 35.5802 18.3667 35.25V8.58333C18.3667 8.25181 18.4984 7.93387 18.7328 7.69944C18.9672 7.46502 19.2852 7.33333 19.6167 7.33333C19.9482 7.33333 20.2661 7.46502 20.5006 7.69944C20.735 7.93387 20.8667 8.25181 20.8667 8.58333V35.25C20.8624 35.5802 20.7293 35.8956 20.4958 36.1291C20.2623 36.3626 19.9469 36.4957 19.6167 36.5Z" fill="#2D2D2D"/>
</svg>
