<svg width="40" height="40" viewBox="0 0 40 40" fill="none" xmlns="http://www.w3.org/2000/svg">
<path d="M27.9833 36.8833H11.3166C10.4909 36.8899 9.67199 36.7332 8.90699 36.4223C8.14199 36.1114 7.44599 35.6523 6.85899 35.0715C6.27199 34.4907 5.80557 33.7996 5.48654 33.0379C5.1675 32.2763 5.00215 31.4591 4.99998 30.6333V13.9666C4.99118 13.1395 5.14622 12.3188 5.45616 11.5519C5.7661 10.785 6.22482 10.087 6.80584 9.4982C7.38687 8.90943 8.07871 8.44151 8.84146 8.12144C9.60422 7.80137 10.4228 7.63547 11.25 7.63332H27.9166C29.5729 7.63772 31.1601 8.29761 32.3312 9.46876C33.5024 10.6399 34.1622 12.2271 34.1666 13.8833V30.55C34.1844 32.2092 33.5435 33.8077 32.3843 34.995C31.2252 36.1823 29.6425 36.8613 27.9833 36.8833ZM11.3166 10.2166C10.3249 10.1988 9.36641 10.5746 8.65109 11.2618C7.93577 11.949 7.52186 12.8916 7.49998 13.8833V30.55C7.49998 31.5445 7.89507 32.4984 8.59833 33.2016C9.30159 33.9049 10.2554 34.3 11.25 34.3H27.9166C28.8969 34.3002 29.8384 33.9166 30.5393 33.2313C31.2402 32.5459 31.6449 31.6134 31.6666 30.6333V13.9666C31.6666 13.4742 31.5697 12.9866 31.3812 12.5316C31.1927 12.0766 30.9165 11.6632 30.5683 11.315C30.2201 10.9668 29.8067 10.6906 29.3517 10.5021C28.8967 10.3136 28.4091 10.2166 27.9166 10.2166H11.3166Z" fill="#2D2D2D"/>
<path d="M36.0834 19.05H3.16668C2.83516 19.05 2.51722 18.9183 2.2828 18.6839C2.04838 18.4495 1.91668 18.1315 1.91668 17.8C1.91668 17.4685 2.04838 17.1505 2.2828 16.9161C2.51722 16.6817 2.83516 16.55 3.16668 16.55H36.0834C36.4149 16.55 36.7328 16.6817 36.9672 16.9161C37.2017 17.1505 37.3334 17.4685 37.3334 17.8C37.3334 18.1315 37.2017 18.4495 36.9672 18.6839C36.7328 18.9183 36.4149 19.05 36.0834 19.05Z" fill="#2D2D2D"/>
<path d="M19.6166 10.1333C19.2883 10.134 18.9721 10.0087 18.7333 9.78332L14.35 5.39999C14.1159 5.16561 13.9844 4.84791 13.9844 4.51666C13.9844 4.1854 14.1159 3.8677 14.35 3.63332C14.4649 3.51539 14.6022 3.42167 14.754 3.35767C14.9057 3.29368 15.0687 3.26071 15.2333 3.26071C15.398 3.26071 15.561 3.29368 15.7127 3.35767C15.8644 3.42167 16.0017 3.51539 16.1166 3.63332L19.6166 7.11666L23.2166 3.53332C23.3316 3.41539 23.4689 3.32167 23.6206 3.25767C23.7723 3.19368 23.9353 3.16071 24.1 3.16071C24.2646 3.16071 24.4276 3.19368 24.5793 3.25767C24.731 3.32167 24.8684 3.41539 24.9833 3.53332C25.2174 3.7677 25.3489 4.0854 25.3489 4.41666C25.3489 4.74791 25.2174 5.06561 24.9833 5.29999L20.5 9.78332C20.2612 10.0087 19.945 10.134 19.6166 10.1333Z" fill="#2D2D2D"/>
<path d="M19.6167 36.8833C19.2865 36.879 18.9711 36.7459 18.7376 36.5124C18.5041 36.2789 18.371 35.9635 18.3667 35.6333V17.8C18.3667 17.4685 18.4984 17.1505 18.7328 16.9161C18.9672 16.6817 19.2852 16.55 19.6167 16.55C19.9482 16.55 20.2661 16.6817 20.5006 16.9161C20.735 17.1505 20.8667 17.4685 20.8667 17.8V35.6333C20.8624 35.9635 20.7293 36.2789 20.4958 36.5124C20.2623 36.7459 19.9469 36.879 19.6167 36.8833Z" fill="#2D2D2D"/>
</svg>
