<svg width="40" height="40" viewBox="0 0 40 40" fill="none" xmlns="http://www.w3.org/2000/svg">
<path d="M13.8334 35.2167C13.0377 35.207 12.2576 34.9948 11.5667 34.6C10.8065 34.1648 10.191 33.5156 9.79685 32.7333C9.40272 31.9509 9.24734 31.07 9.35003 30.2L9.65003 27.35C9.69771 26.9245 9.60874 26.4949 9.396 26.1234C9.18326 25.7518 8.85778 25.4576 8.4667 25.2833L5.83337 24.1333C5.01798 23.7838 4.32306 23.2027 3.83472 22.4621C3.34639 21.7215 3.08609 20.8538 3.08609 19.9667C3.08609 19.0795 3.34639 18.2119 3.83472 17.4712C4.32306 16.7306 5.01798 16.1495 5.83337 15.8L8.4667 14.65C8.85778 14.4757 9.18326 14.1815 9.396 13.81C9.60874 13.4384 9.69771 13.0088 9.65003 12.5833L9.35003 9.80001C9.24892 8.92809 9.40501 8.04564 9.79908 7.26132C10.1932 6.477 10.808 5.82505 11.5679 5.38575C12.3278 4.94645 13.1996 4.73899 14.076 4.7889C14.9523 4.83881 15.7949 5.14393 16.5 5.66667L18.8167 7.33334C19.1598 7.58518 19.5744 7.72097 20 7.72097C20.4257 7.72097 20.8402 7.58518 21.1834 7.33334L23.5 5.66667C24.2052 5.14393 25.0478 4.83881 25.9241 4.7889C26.8004 4.73899 27.6722 4.94645 28.4321 5.38575C29.1921 5.82505 29.8069 6.477 30.201 7.26132C30.5951 8.04564 30.7511 8.92809 30.65 9.80001L30.35 12.65C30.3024 13.0755 30.3913 13.5051 30.6041 13.8767C30.8168 14.2482 31.1423 14.5424 31.5334 14.7167L34.1667 15.8667C34.9821 16.2162 35.677 16.7973 36.1653 17.5379C36.6537 18.2786 36.914 19.1462 36.914 20.0333C36.914 20.9205 36.6537 21.7881 36.1653 22.5288C35.677 23.2694 34.9821 23.8505 34.1667 24.2L31.5334 25.35C31.1423 25.5243 30.8168 25.8185 30.6041 26.19C30.3913 26.5616 30.3024 26.9912 30.35 27.4167L30.65 30.2667C30.7363 31.1331 30.5694 32.006 30.1695 32.7794C29.7695 33.5529 29.1538 34.1937 28.3969 34.6242C27.6401 35.0547 26.7746 35.2563 25.9054 35.2047C25.0362 35.1531 24.2006 34.8504 23.5 34.3333L21.1834 32.6667C20.8402 32.4148 20.4257 32.279 20 32.279C19.5744 32.279 19.1598 32.4148 18.8167 32.6667L16.5 34.3333C15.7271 34.9027 14.7934 35.212 13.8334 35.2167ZM13.8334 7.28334C13.4761 7.29114 13.1265 7.38857 12.8167 7.56667C12.4756 7.75927 12.1997 8.04935 12.0245 8.39975C11.8493 8.75014 11.7828 9.14487 11.8334 9.53334L12.1334 12.3833C12.2428 13.335 12.0446 14.2967 11.5677 15.1275C11.0908 15.9583 10.3603 16.6146 9.48337 17L6.85003 18.1667C6.49319 18.3223 6.18951 18.5786 5.97623 18.9042C5.76295 19.2299 5.64934 19.6107 5.64934 20C5.64934 20.3893 5.76295 20.7701 5.97623 21.0958C6.18951 21.4214 6.49319 21.6778 6.85003 21.8333L9.48337 23C10.3603 23.3855 11.0908 24.0417 11.5677 24.8725C12.0446 25.7033 12.2428 26.665 12.1334 27.6167L11.8334 30.4667C11.7828 30.8551 11.8493 31.2499 12.0245 31.6003C12.1997 31.9507 12.4756 32.2407 12.8167 32.4333C13.1527 32.6279 13.538 32.7205 13.9257 32.6998C14.3134 32.6791 14.6867 32.5459 15 32.3167L17.3167 30.65C18.0896 30.0814 19.0239 29.7748 19.9834 29.7748C20.9428 29.7748 21.8772 30.0814 22.65 30.65L24.9667 32.3167C25.2817 32.5494 25.6581 32.6845 26.0492 32.7052C26.4403 32.726 26.8289 32.6314 27.1667 32.4333C27.5078 32.2407 27.7837 31.9507 27.9589 31.6003C28.1341 31.2499 28.2006 30.8551 28.15 30.4667L27.85 27.6167C27.7419 26.6631 27.9425 25.6999 28.4226 24.8689C28.9026 24.0378 29.6366 23.3828 30.5167 23L33.1334 21.8333C33.4902 21.6778 33.7939 21.4214 34.0072 21.0958C34.2205 20.7701 34.3341 20.3893 34.3341 20C34.3341 19.6107 34.2205 19.2299 34.0072 18.9042C33.7939 18.5786 33.4902 18.3223 33.1334 18.1667L30.5 17C29.6231 16.6146 28.8926 15.9583 28.4157 15.1275C27.9388 14.2967 27.7406 13.335 27.85 12.3833L28.15 9.53334C28.193 9.14932 28.1238 8.76107 27.9509 8.41553C27.7779 8.07 27.5085 7.78197 27.1753 7.58628C26.8421 7.39059 26.4593 7.29561 26.0733 7.31284C25.6873 7.33006 25.3145 7.45875 25 7.68334L22.6834 9.35001C21.9105 9.91858 20.9762 10.2252 20.0167 10.2252C19.0572 10.2252 18.1229 9.91858 17.35 9.35001L15 7.68334C14.6635 7.42941 14.2549 7.2893 13.8334 7.28334Z" fill="#2D2D2D"/>
<path d="M20 25.3167C18.9485 25.3167 17.9206 25.0049 17.0463 24.4207C16.1719 23.8365 15.4905 23.0061 15.0881 22.0346C14.6857 21.0631 14.5804 19.9941 14.7855 18.9628C14.9907 17.9315 15.497 16.9841 16.2406 16.2406C16.9841 15.497 17.9315 14.9907 18.9628 14.7855C19.9941 14.5804 21.0631 14.6857 22.0346 15.0881C23.0061 15.4905 23.8365 16.1719 24.4207 17.0462C25.0049 17.9206 25.3167 18.9485 25.3167 20C25.3167 21.4101 24.7566 22.7624 23.7595 23.7595C22.7624 24.7565 21.4101 25.3167 20 25.3167ZM20 17.1834C19.443 17.1834 18.8984 17.3485 18.4352 17.658C17.972 17.9675 17.611 18.4074 17.3978 18.9221C17.1846 19.4368 17.1288 20.0031 17.2375 20.5495C17.3462 21.0959 17.6144 21.5978 18.0084 21.9917C18.4023 22.3856 18.9042 22.6539 19.4505 22.7626C19.9969 22.8712 20.5633 22.8155 21.0779 22.6023C21.5926 22.3891 22.0325 22.0281 22.342 21.5649C22.6515 21.1017 22.8167 20.5571 22.8167 20C22.8167 19.253 22.52 18.5366 21.9917 18.0083C21.4635 17.4801 20.7471 17.1834 20 17.1834Z" fill="#2D2D2D"/>
</svg>
