<svg width="40" height="40" viewBox="0 0 40 40" fill="none" xmlns="http://www.w3.org/2000/svg">
<path d="M17.2333 29.6667C16.9821 29.67 16.7356 29.5985 16.5251 29.4613C16.3146 29.3242 16.1497 29.1275 16.0513 28.8964C15.9528 28.6652 15.9254 28.4101 15.9723 28.1633C16.0193 27.9165 16.1386 27.6892 16.3151 27.5104C16.4915 27.3316 16.7172 27.2093 16.9633 27.159C17.2095 27.1088 17.465 27.1329 17.6975 27.2282C17.9299 27.3236 18.1287 27.4859 18.2686 27.6946C18.4086 27.9032 18.4833 28.1488 18.4833 28.4C18.4834 28.7331 18.3522 29.0528 18.1182 29.2898C17.8843 29.5269 17.5664 29.6623 17.2333 29.6667Z" fill="#2D2D2D"/>
<path d="M23.35 29.6667C24.0404 29.6667 24.6 29.107 24.6 28.4167C24.6 27.7263 24.0404 27.1667 23.35 27.1667C22.6597 27.1667 22.1 27.7263 22.1 28.4167C22.1 29.107 22.6597 29.6667 23.35 29.6667Z" fill="#2D2D2D"/>
<path d="M23.7833 36.2166H16.2166C14.1435 36.2166 12.1553 35.3931 10.6894 33.9272C9.2235 32.4613 8.39996 30.4731 8.39996 28.4C8.39996 26.3269 9.2235 24.3387 10.6894 22.8728C12.1553 21.4069 14.1435 20.5833 16.2166 20.5833H23.7833C25.8564 20.5833 27.8446 21.4069 29.3105 22.8728C30.7764 24.3387 31.6 26.3269 31.6 28.4C31.6 30.4731 30.7764 32.4613 29.3105 33.9272C27.8446 35.3931 25.8564 36.2166 23.7833 36.2166ZM16.2166 23.0833C14.8066 23.0833 13.4542 23.6435 12.4572 24.6405C11.4601 25.6376 10.9 26.9899 10.9 28.4C10.9 29.81 11.4601 31.1624 12.4572 32.1594C13.4542 33.1565 14.8066 33.7166 16.2166 33.7166H23.7833C24.4815 33.7166 25.1729 33.5791 25.8179 33.3119C26.4629 33.0447 27.0491 32.6531 27.5428 32.1594C28.0364 31.6657 28.4281 31.0796 28.6953 30.4346C28.9624 29.7895 29.1 29.0982 29.1 28.4C29.1 27.7018 28.9624 27.0104 28.6953 26.3654C28.4281 25.7203 28.0364 25.1342 27.5428 24.6405C27.0491 24.1468 26.4629 23.7552 25.8179 23.488C25.1729 23.2208 24.4815 23.0833 23.7833 23.0833H16.2166Z" fill="#2D2D2D"/>
<path d="M33.3333 25.5167H28.8667C28.5351 25.5167 28.2172 25.385 27.9828 25.1505C27.7484 24.9161 27.6167 24.5982 27.6167 24.2667C27.6167 23.9351 27.7484 23.6172 27.9828 23.3828C28.2172 23.1484 28.5351 23.0167 28.8667 23.0167H33.3333C34.0273 23.0167 34.6929 22.741 35.1836 22.2503C35.6743 21.7595 35.95 21.094 35.95 20.4C35.95 16.6589 34.465 13.0708 31.8212 10.4239C29.1774 7.77698 25.5911 6.28774 21.85 6.28332H18.3333C14.5907 6.28773 11.0027 7.77644 8.35622 10.4229C5.70979 13.0693 4.22108 16.6574 4.21667 20.4C4.21667 21.094 4.49236 21.7595 4.98308 22.2503C5.4738 22.741 6.13935 23.0167 6.83334 23.0167H11.1333C11.4649 23.0167 11.7828 23.1484 12.0172 23.3828C12.2516 23.6172 12.3833 23.9351 12.3833 24.2667C12.3833 24.5982 12.2516 24.9161 12.0172 25.1505C11.7828 25.385 11.4649 25.5167 11.1333 25.5167H6.75C5.40012 25.5035 4.10975 24.9592 3.15832 24.0015C2.20689 23.0438 1.67099 21.7499 1.66667 20.4C1.66667 15.9797 3.42262 11.7405 6.54822 8.61488C9.67383 5.48927 13.9131 3.73332 18.3333 3.73332H21.85C24.0387 3.73332 26.206 4.16442 28.2281 5.002C30.2502 5.83958 32.0875 7.06723 33.6351 8.61488C35.1828 10.1625 36.4104 11.9998 37.248 14.0219C38.0856 16.044 38.5167 18.2113 38.5167 20.4C38.5145 21.0769 38.3785 21.7468 38.1164 22.3709C37.8543 22.9951 37.4714 23.5612 36.9896 24.0368C36.5078 24.5124 35.9368 24.8879 35.3093 25.1419C34.6818 25.3959 34.0103 25.5233 33.3333 25.5167Z" fill="#2D2D2D"/>
<path d="M5.28331 20.9667C4.32485 20.9655 3.3751 20.7846 2.48331 20.4333C2.3118 20.3925 2.15086 20.3158 2.01108 20.2083C1.8713 20.1009 1.75583 19.9651 1.67226 19.8098C1.58869 19.6546 1.5389 19.4834 1.52618 19.3075C1.51345 19.1317 1.53807 18.9551 1.59842 18.7895C1.65877 18.6238 1.75348 18.4728 1.87634 18.3463C1.99919 18.2199 2.14741 18.1208 2.31126 18.0557C2.4751 17.9906 2.65087 17.9609 2.82702 17.9685C3.00317 17.9761 3.17571 18.0209 3.33331 18.1C3.93153 18.3426 4.57108 18.4672 5.21664 18.4667C6.29489 18.4836 7.34973 18.1516 8.2238 17.52C9.09788 16.8884 9.74433 15.9912 10.0667 14.9621C10.3891 13.9331 10.3702 12.8273 10.0127 11.8099C9.6553 10.7925 8.9785 9.91793 8.08331 9.31665C7.82894 9.12311 7.65838 8.83949 7.60667 8.52407C7.55496 8.20866 7.62604 7.88542 7.80531 7.6208C7.98457 7.35617 8.25839 7.17027 8.57048 7.1013C8.88258 7.03234 9.20923 7.08554 9.48331 7.24998C10.8149 8.14864 11.8227 9.45108 12.3584 10.9655C12.8941 12.48 12.9294 14.1265 12.4591 15.6625C11.9887 17.1985 11.0376 18.543 9.74583 19.4978C8.45401 20.4527 6.88973 20.9676 5.28331 20.9667Z" fill="#2D2D2D"/>
<path d="M37.1 20.9333H37C34.3029 20.712 31.7872 19.4862 29.9507 17.4985C28.1143 15.5108 27.091 12.9061 27.0833 10.2C27.0826 8.88341 27.3256 7.57808 27.8 6.34998C27.8613 6.19677 27.9521 6.05713 28.0674 5.93903C28.1826 5.82094 28.32 5.7267 28.4717 5.6617C28.6234 5.5967 28.7864 5.56221 28.9514 5.5602C29.1163 5.55819 29.2801 5.58869 29.4333 5.64998C29.5865 5.71126 29.7262 5.80212 29.8443 5.91737C29.9624 6.03262 30.0566 6.17 30.1216 6.32167C30.1866 6.47334 30.2211 6.63632 30.2231 6.80132C30.2251 6.96632 30.1946 7.1301 30.1333 7.28331C29.7626 8.21066 29.5758 9.20129 29.5833 10.2C29.6005 12.2741 30.3906 14.2673 31.7992 15.7898C33.2077 17.3124 35.1335 18.255 37.2 18.4333C37.5302 18.463 37.8357 18.6211 38.0507 18.8735C38.2657 19.1259 38.3732 19.4525 38.35 19.7833C38.3248 20.0972 38.1821 20.39 37.9503 20.6032C37.7186 20.8164 37.4149 20.9343 37.1 20.9333Z" fill="#2D2D2D"/>
</svg>
