<svg width="40" height="40" viewBox="0 0 40 40" fill="none" xmlns="http://www.w3.org/2000/svg">
<path d="M17.0833 20.55C16.8816 20.5476 16.6827 20.5021 16.5 20.4167L12.4 18.3333L8.33335 20.4167C8.12554 20.5275 7.89066 20.5773 7.65577 20.5604C7.42088 20.5436 7.19553 20.4607 7.00568 20.3214C6.81583 20.182 6.6692 19.9919 6.58269 19.7728C6.49617 19.5538 6.47329 19.3148 6.51668 19.0833L7.30002 14.5333L3.96668 11.3C3.79494 11.1363 3.67263 10.9276 3.6137 10.6978C3.55476 10.4679 3.56157 10.2262 3.63335 10C3.70611 9.77727 3.84001 9.57948 4.01977 9.42919C4.19953 9.2789 4.41792 9.18216 4.65002 9.15L9.23335 8.48334L11.2667 4.35C11.3841 4.15686 11.5493 3.99721 11.7464 3.88642C11.9434 3.77563 12.1656 3.71743 12.3917 3.71743C12.6177 3.71743 12.84 3.77563 13.037 3.88642C13.234 3.99721 13.3992 4.15686 13.5167 4.35L15.5667 8.5L20.15 9.16667C20.3803 9.20148 20.5963 9.29995 20.7736 9.45096C20.9509 9.60196 21.0825 9.79951 21.1536 10.0213C21.2246 10.2431 21.2323 10.4804 21.1757 10.7063C21.1191 10.9322 21.0006 11.1379 20.8333 11.3L17.5 14.5333L18.3333 19.0833C18.3764 19.3135 18.3539 19.5512 18.2685 19.7693C18.183 19.9874 18.038 20.177 17.85 20.3167C17.6249 20.4722 17.3569 20.5538 17.0833 20.55ZM7.51668 11.2667L9.48335 13.2C9.62995 13.3393 9.74007 13.5124 9.80401 13.7042C9.86795 13.896 9.88375 14.1006 9.85002 14.3L9.38335 17.0167L11.8167 15.7333C11.9977 15.6424 12.1975 15.5951 12.4 15.5951C12.6026 15.5951 12.8023 15.6424 12.9833 15.7333L15.4167 17.0167L15 14.3C14.9663 14.1006 14.9821 13.896 15.046 13.7042C15.11 13.5124 15.2201 13.3393 15.3667 13.2L17.3333 11.2667L14.55 10.8833C14.3514 10.8517 14.1631 10.7733 14.0008 10.6544C13.8385 10.5356 13.7068 10.3798 13.6167 10.2L12.4 7.71667L11.1833 10.2C11.0916 10.3819 10.9574 10.539 10.792 10.658C10.6266 10.7769 10.435 10.8542 10.2333 10.8833L7.51668 11.2667Z" fill="#2D2D2D"/>
<path d="M20.55 36.35C20.2877 36.347 20.0324 36.2657 19.8166 36.1167C19.6271 35.9777 19.4799 35.7888 19.3916 35.571C19.3033 35.3531 19.2774 35.1151 19.3166 34.8833L20.2833 29.3167L16.2333 25.3667C16.0625 25.206 15.9417 24.9994 15.8855 24.7718C15.8293 24.5441 15.8401 24.305 15.9166 24.0833C15.9881 23.8629 16.1195 23.6666 16.2961 23.5165C16.4727 23.3664 16.6875 23.2684 16.9166 23.2333L22.5166 22.4333L25 17.35C25.1174 17.1569 25.2826 16.9972 25.4797 16.8864C25.6767 16.7756 25.8989 16.7174 26.125 16.7174C26.351 16.7174 26.5733 16.7756 26.7703 16.8864C26.9673 16.9972 27.1325 17.1569 27.25 17.35L29.75 22.4333L35.3333 23.2333C35.565 23.2656 35.7829 23.3622 35.9624 23.5122C36.1419 23.6621 36.2757 23.8594 36.3487 24.0817C36.4216 24.3039 36.4307 24.5422 36.3749 24.7693C36.3192 24.9965 36.2008 25.2034 36.0333 25.3667L32 29.3167L32.95 34.8833C32.9911 35.1135 32.9677 35.3505 32.8824 35.5682C32.7971 35.7859 32.6532 35.9757 32.4666 36.1167C32.2703 36.243 32.0418 36.3102 31.8083 36.3102C31.5748 36.3102 31.3463 36.243 31.15 36.1167L26.15 33.5L21.15 36.1167C20.9746 36.2469 20.7673 36.3275 20.55 36.35ZM19.7833 25.35L22.5 27.9833C22.6427 28.1284 22.7488 28.3053 22.8097 28.4995C22.8705 28.6936 22.8843 28.8995 22.85 29.1L22.2166 32.8167L25.55 31.05C25.731 30.9591 25.9308 30.9118 26.1333 30.9118C26.3359 30.9118 26.5356 30.9591 26.7166 31.05L30.05 32.8167L29.4166 29.1C29.3748 28.8995 29.385 28.6916 29.4463 28.4961C29.5076 28.3006 29.6178 28.1241 29.7666 27.9833L32.4666 25.35L28.7333 24.8C28.5328 24.774 28.342 24.6977 28.1789 24.5782C28.0157 24.4588 27.8854 24.3 27.8 24.1167L26.1333 20.7833L24.4666 24.1167C24.3813 24.3 24.2509 24.4588 24.0877 24.5782C23.9246 24.6977 23.7339 24.774 23.5333 24.8L19.7833 25.35Z" fill="#2D2D2D"/>
</svg>
